<?xml version="1.0" encoding="utf-8"?>
<!-- Generator: Adobe Illustrator 24.0.0, SVG Export Plug-In . SVG Version: 6.00 Build 0)  -->
<svg version="1.1" id="Layer_1" xmlns="http://www.w3.org/2000/svg" xmlns:xlink="http://www.w3.org/1999/xlink" x="0px" y="0px"
	 viewBox="0 0 563.3 472.4" style="enable-background:new 0 0 563.3 472.4;" xml:space="preserve">
<style type="text/css">
	.st0{enable-background:new    ;}
	.st1{fill:url(#path837_1_);}
</style>
<title>Illust1</title>
<g class="st0">
	<path d="M6.1,360.3h9.5V410H6.1V360.3z"/>
	<path d="M62.5,360.3h9.2V410h-9l-25.6-34.2V410h-9.3v-49.7h9l25.6,34.3V360.3z"/>
	<path d="M78.4,360.3h40.5v8.4h-15.5V410h-9.6v-41.3H78.4V360.3z"/>
	<path d="M156.8,410l-8.6-14.7c-0.4,0-1,0.1-1.8,0.1h-11.2V410h-9.5v-49.7h20.7c6.4,0,11.4,1.5,14.9,4.5c3.5,3,5.3,7.2,5.3,12.6
		c0,3.9-0.8,7.2-2.5,9.9c-1.7,2.7-4.1,4.8-7.3,6.2l10.9,16.5H156.8z M135.2,387h11.2c3.6,0,6.3-0.8,8.2-2.3c1.9-1.6,2.8-3.9,2.8-7
		c0-3-0.9-5.3-2.8-6.8c-1.9-1.5-4.6-2.3-8.2-2.3h-11.2V387z"/>
	<path d="M213,363c4,2.2,7.2,5.3,9.5,9.2c2.3,3.9,3.5,8.2,3.5,12.9c0,4.7-1.2,9.1-3.5,13c-2.3,3.9-5.5,7-9.5,9.3
		c-4,2.3-8.5,3.4-13.5,3.4c-4.9,0-9.4-1.1-13.5-3.4c-4-2.3-7.2-5.4-9.5-9.3c-2.3-3.9-3.5-8.2-3.5-13c0-4.7,1.2-9,3.5-12.9
		c2.3-3.9,5.5-6.9,9.5-9.2s8.5-3.3,13.5-3.3C204.5,359.6,209,360.8,213,363z M191.3,370.4c-2.6,1.5-4.7,3.5-6.2,6.1
		c-1.5,2.6-2.3,5.4-2.3,8.6c0,3.1,0.8,6,2.3,8.6c1.5,2.6,3.6,4.7,6.2,6.2c2.6,1.5,5.4,2.3,8.4,2.3c3,0,5.8-0.8,8.3-2.3
		c2.6-1.5,4.6-3.6,6.1-6.2c1.5-2.6,2.2-5.5,2.2-8.6c0-3.1-0.7-6-2.2-8.6c-1.5-2.6-3.5-4.6-6.1-6.1c-2.6-1.5-5.3-2.2-8.3-2.2
		C196.7,368.2,193.9,368.9,191.3,370.4z"/>
	<path d="M268.4,363.4c3.9,2.1,7,5.1,9.2,8.8c2.2,3.8,3.3,8.1,3.3,12.9s-1.1,9.1-3.4,12.8c-2.2,3.8-5.4,6.7-9.3,8.8
		c-4,2.1-8.5,3.2-13.6,3.2h-20.3v-49.7h20.7C260.1,360.3,264.5,361.3,268.4,363.4z M263.5,399.5c2.4-1.4,4.3-3.3,5.7-5.8
		c1.4-2.5,2.1-5.3,2.1-8.5c0-3.2-0.7-6-2.1-8.6c-1.4-2.5-3.4-4.5-5.9-5.9c-2.5-1.4-5.3-2.1-8.3-2.1h-11v32.9h11.4
		C258.3,401.6,261.1,400.9,263.5,399.5z"/>
	<path d="M301.3,398.8c2.2,2.2,5.2,3.3,8.9,3.3c3.7,0,6.7-1.1,8.8-3.3c2.2-2.2,3.2-5.3,3.2-9.2v-29.3h9.5v29.3
		c0,4.3-0.9,8.1-2.6,11.3c-1.8,3.2-4.3,5.6-7.5,7.3c-3.2,1.7-7.1,2.6-11.5,2.6c-4.5,0-8.3-0.9-11.6-2.6c-3.3-1.7-5.8-4.2-7.6-7.3
		c-1.8-3.2-2.6-6.9-2.6-11.3v-29.3h9.5v29.3C297.9,393.5,299,396.5,301.3,398.8z"/>
	<path d="M372.8,369.9c-2.4-1.1-4.8-1.7-7.3-1.7c-3.1,0-5.9,0.7-8.4,2.2c-2.6,1.5-4.6,3.5-6,6.1c-1.5,2.6-2.2,5.4-2.2,8.5
		c0,3.1,0.7,5.9,2.2,8.5c1.5,2.6,3.5,4.6,6,6.1c2.6,1.5,5.4,2.2,8.4,2.2c2.4,0,4.7-0.5,7.1-1.6c2.4-1,4.5-2.5,6.4-4.3l5.6,6.2
		c-2.6,2.7-5.6,4.7-9.1,6.3c-3.5,1.5-7,2.3-10.5,2.3c-4.8,0-9.2-1.1-13.1-3.4c-4-2.3-7.1-5.4-9.4-9.3c-2.3-3.9-3.4-8.2-3.4-13
		c0-4.7,1.2-9,3.5-12.9c2.3-3.9,5.5-6.9,9.5-9.2s8.4-3.3,13.3-3.3c3.6,0,7,0.7,10.4,2.1s6.3,3.4,8.7,5.9l-5.5,7
		C377.2,372.6,375.2,371,372.8,369.9z"/>
	<path d="M386.9,360.3h40.5v8.4h-15.5V410h-9.6v-41.3h-15.5V360.3z"/>
	<path d="M434.2,360.3h9.5V410h-9.5V360.3z"/>
	<path d="M491.9,363c4,2.2,7.2,5.3,9.5,9.2c2.3,3.9,3.5,8.2,3.5,12.9c0,4.7-1.2,9.1-3.5,13c-2.3,3.9-5.5,7-9.5,9.3
		c-4,2.3-8.5,3.4-13.5,3.4c-4.9,0-9.4-1.1-13.5-3.4c-4-2.3-7.2-5.4-9.5-9.3c-2.3-3.9-3.5-8.2-3.5-13c0-4.7,1.2-9,3.5-12.9
		c2.3-3.9,5.5-6.9,9.5-9.2s8.5-3.3,13.5-3.3C483.4,359.6,487.9,360.8,491.9,363z M470.2,370.4c-2.6,1.5-4.7,3.5-6.2,6.1
		c-1.5,2.6-2.3,5.4-2.3,8.6c0,3.1,0.8,6,2.3,8.6c1.5,2.6,3.6,4.7,6.2,6.2c2.6,1.5,5.4,2.3,8.4,2.3c3,0,5.8-0.8,8.3-2.3
		c2.6-1.5,4.6-3.6,6.1-6.2c1.5-2.6,2.2-5.5,2.2-8.6c0-3.1-0.7-6-2.2-8.6c-1.5-2.6-3.5-4.6-6.1-6.1c-2.6-1.5-5.3-2.2-8.3-2.2
		C475.6,368.2,472.8,368.9,470.2,370.4z"/>
	<path d="M548,360.3h9.2V410h-9l-25.6-34.2V410h-9.3v-49.7h9l25.6,34.3V360.3z"/>
</g>
<g class="st0">
	<path d="M142.3,446.8h5.7v16.8h-1.7v-15.3h-4.1V446.8z"/>
	<path d="M164.9,448.9c1.2,1.5,1.8,3.6,1.8,6.3c0,2.7-0.6,4.8-1.8,6.3c-1.2,1.5-2.9,2.2-5.1,2.2c-2.2,0-3.9-0.7-5.1-2.2
		c-1.2-1.5-1.8-3.6-1.8-6.3c0-2.7,0.6-4.8,1.8-6.3c1.2-1.5,2.9-2.2,5.1-2.2C162,446.7,163.7,447.5,164.9,448.9z M155.9,449.9
		c-0.9,1.2-1.3,3-1.3,5.3c0,2.4,0.4,4.1,1.3,5.3c0.9,1.2,2.2,1.8,3.9,1.8s3-0.6,3.9-1.8c0.9-1.2,1.3-3,1.3-5.3
		c0-2.4-0.4-4.1-1.3-5.3c-0.9-1.2-2.2-1.8-3.9-1.8S156.8,448.7,155.9,449.9z"/>
	<path d="M176.7,462.7c-0.9,0.6-1.8,0.9-2.8,0.9c-1,0-1.7-0.3-2.3-0.9c-0.6-0.6-0.8-1.5-0.8-2.7v-7.5H169l0-1.2h1.8v-3.2h1.6v3.2
		l4.1,0v1.3h-4.1v7.2c0,1.6,0.6,2.3,1.7,2.3c0.6,0,1.3-0.2,2.1-0.7L176.7,462.7z"/>
	<path d="M189.9,452.3c0.9,0.9,1.3,2.1,1.3,3.6v7.7h-1.6v-7.3c0-1.2-0.3-2.1-1-2.8s-1.6-1-2.7-1c-1.4,0-2.5,0.5-3.3,1.4
		s-1.2,2.1-1.2,3.6v6.2h-1.6v-17.8h1.6v8.2c0.8-2,2.5-3,5-3C187.9,451,189,451.4,189.9,452.3z"/>
	<path d="M202.4,446.8h2.1l6.6,12.6l6.5-12.6h2.1v16.8H218l0-14.5l-6.6,12.7h-0.9l-6.6-12.7v14.5h-1.6V446.8z"/>
</g>
<g class="st0">
	<path d="M232.5,463.6l0-2.1c-0.5,0.7-1.1,1.3-1.9,1.6c-0.8,0.4-1.7,0.5-2.8,0.5c-0.8,0-1.6-0.2-2.2-0.5s-1.1-0.8-1.5-1.4
		c-0.4-0.6-0.5-1.2-0.5-1.9c0-1.1,0.4-1.9,1.3-2.6c0.8-0.6,2-0.9,3.5-0.9h4.2v-1c0-1-0.3-1.8-0.9-2.3c-0.6-0.5-1.5-0.8-2.6-0.8
		c-1.3,0-2.7,0.5-4.1,1.5l-0.7-1.1c0.8-0.6,1.7-1,2.4-1.3c0.8-0.3,1.6-0.4,2.6-0.4c1.5,0,2.7,0.4,3.5,1.1c0.8,0.8,1.3,1.8,1.3,3.2
		l0,8.3H232.5z M230.9,461.5c0.8-0.5,1.3-1.3,1.6-2.2v-1.7h-4.1c-1.1,0-1.9,0.2-2.5,0.6s-0.9,0.9-0.9,1.7c0,0.8,0.3,1.4,0.8,1.8
		c0.6,0.5,1.3,0.7,2.2,0.7C229.1,462.3,230.1,462.1,230.9,461.5z"/>
</g>
<g class="st0">
	<path d="M240,467.6c-0.6,0.5-1.4,0.7-2.2,0.7c-1,0-1.8-0.3-2.6-0.9l0.7-1.2c0.6,0.4,1.2,0.6,1.8,0.6c0.5,0,1-0.2,1.4-0.5
		c0.4-0.3,0.8-0.8,1-1.5l0.5-1.3l-5.2-12.5h1.7l4.3,10.8l4.2-10.8h1.7l-5.8,14.4C241.1,466.4,240.6,467.1,240,467.6z"/>
	<path d="M255.4,455.8h5.6v1.2h-5.6V455.8z"/>
	<path d="M269.3,446.8h5.7v16.8h-1.7v-15.3h-4.1V446.8z"/>
	<path d="M285.1,452.5c-0.6-0.2-1.2-0.3-1.8-0.3c-0.8,0-1.4,0.2-1.9,0.5c-0.5,0.3-0.7,0.8-0.7,1.4c0,0.4,0.1,0.8,0.4,1.1
		c0.3,0.3,0.6,0.5,1,0.7s0.9,0.4,1.6,0.6c0.9,0.3,1.6,0.5,2.1,0.8c0.5,0.2,1,0.6,1.4,1.1c0.4,0.5,0.6,1.1,0.6,1.9
		c0,1.1-0.4,2-1.3,2.6c-0.9,0.6-1.9,0.9-3.2,0.9c-0.9,0-1.8-0.2-2.6-0.5c-0.8-0.3-1.6-0.7-2.1-1.3l0.6-1.2c0.5,0.5,1.2,0.9,1.9,1.2
		s1.5,0.4,2.3,0.4c0.8,0,1.5-0.2,2.1-0.5c0.5-0.4,0.8-0.9,0.8-1.5c0-0.5-0.1-0.8-0.4-1.1c-0.3-0.3-0.6-0.5-1-0.7
		c-0.4-0.2-1-0.4-1.7-0.6c-0.8-0.3-1.5-0.5-2.1-0.7c-0.5-0.2-1-0.6-1.3-1c-0.4-0.5-0.6-1.1-0.6-1.8c0-1.1,0.4-1.9,1.2-2.5
		c0.8-0.6,1.9-0.8,3.1-0.8c0.7,0,1.4,0.1,2.1,0.3c0.7,0.2,1.3,0.5,1.8,0.8l-0.6,1.2C286.3,453,285.7,452.7,285.1,452.5z"/>
	<path d="M297.3,462.7c-0.9,0.6-1.8,0.9-2.8,0.9c-1,0-1.7-0.3-2.3-0.9c-0.6-0.6-0.8-1.5-0.8-2.7v-7.5h-1.8l0-1.2h1.8v-3.2h1.6v3.2
		l4.1,0v1.3h-4.1v7.2c0,1.6,0.6,2.3,1.7,2.3c0.6,0,1.3-0.2,2.1-0.7L297.3,462.7z"/>
	<path d="M312.5,462.4c-0.8,0.9-2,1.3-3.4,1.3c-0.9,0-1.7-0.2-2.5-0.6s-1.5-1-2-1.8l0.8-1.2c0.5,0.7,1.1,1.2,1.7,1.5
		c0.6,0.3,1.3,0.5,2,0.5c1,0,1.7-0.3,2.2-0.9c0.5-0.6,0.8-1.4,0.8-2.6v-10.3h-6v-1.5h7.7v11.9C313.8,460.3,313.4,461.5,312.5,462.4z
		"/>
	<path d="M329.1,451v12.6h-1.6v-3c-0.4,1-1,1.7-1.9,2.3c-0.8,0.5-1.8,0.8-3,0.8c-1.5,0-2.7-0.4-3.5-1.3c-0.8-0.9-1.3-2.1-1.3-3.6
		V451h1.6v7.3c0,1.2,0.3,2.1,1,2.8c0.6,0.7,1.5,1,2.7,1c1.3,0,2.4-0.5,3.2-1.4c0.8-0.9,1.2-2.1,1.2-3.6V451H329.1z"/>
	<path d="M343.9,452.3c0.9,0.9,1.3,2.1,1.3,3.6v7.7h-1.6v-7.3c0-1.2-0.3-2.1-1-2.8c-0.7-0.7-1.6-1-2.7-1c-1.3,0-2.3,0.4-3.1,1.2
		c-0.8,0.8-1.2,1.8-1.3,3.2v6.8h-1.6V451h1.6v2.9c0.4-1,1.1-1.7,1.9-2.2c0.8-0.5,1.9-0.8,3.1-0.8C341.9,451,343.1,451.4,343.9,452.3
		z"/>
	<path d="M358.9,452.8c1,1.2,1.5,2.9,1.4,5h-10.5c0.1,1.3,0.6,2.4,1.5,3.3s2,1.2,3.3,1.2c0.8,0,1.5-0.1,2.2-0.4s1.3-0.7,1.8-1.2
		l0.9,0.9c-0.6,0.7-1.3,1.2-2.2,1.5c-0.9,0.4-1.8,0.5-2.8,0.5c-1.2,0-2.3-0.3-3.2-0.8c-0.9-0.5-1.7-1.3-2.2-2.2s-0.8-2.1-0.8-3.3
		c0-1.2,0.3-2.3,0.8-3.3c0.5-1,1.3-1.7,2.2-2.3c0.9-0.5,2-0.8,3.2-0.8C356.4,451,357.9,451.6,358.9,452.8z M358.9,456.6
		c-0.1-1.3-0.5-2.4-1.3-3.1s-1.8-1.2-3.1-1.2c-1.3,0-2.3,0.4-3.2,1.2c-0.8,0.8-1.3,1.8-1.5,3.1H358.9z"/>
	<path d="M380.7,462.1v1.5h-11.9v-1.4l6.6-6.9c0.8-0.8,1.4-1.6,1.8-2.3c0.4-0.8,0.7-1.4,0.7-2c0-0.9-0.3-1.6-1-2.1s-1.6-0.7-2.7-0.7
		c-0.8,0-1.6,0.2-2.5,0.5c-0.8,0.4-1.6,0.9-2.3,1.5l-0.7-1.2c0.8-0.7,1.7-1.3,2.7-1.7c1-0.4,2-0.6,3-0.6c1.6,0,2.9,0.4,3.8,1.1
		c1,0.7,1.4,1.7,1.4,3c0,0.8-0.3,1.6-0.8,2.5c-0.6,0.9-1.3,1.9-2.3,2.9l-5.7,5.9H380.7z"/>
	<path d="M395.6,448.9c1.2,1.5,1.8,3.6,1.8,6.3c0,2.7-0.6,4.8-1.8,6.3c-1.2,1.5-2.9,2.2-5.1,2.2c-2.2,0-3.9-0.7-5.1-2.2
		c-1.2-1.5-1.8-3.6-1.8-6.3c0-2.7,0.6-4.8,1.8-6.3c1.2-1.5,2.9-2.2,5.1-2.2C392.7,446.7,394.4,447.5,395.6,448.9z M386.6,449.9
		c-0.9,1.2-1.3,3-1.3,5.3c0,2.4,0.4,4.1,1.3,5.3s2.2,1.8,3.9,1.8c1.7,0,3-0.6,3.9-1.8s1.3-3,1.3-5.3c0-2.4-0.4-4.1-1.3-5.3
		s-2.2-1.8-3.9-1.8C388.8,448,387.5,448.7,386.6,449.9z"/>
	<path d="M411.6,462.1v1.5h-11.9v-1.4l6.6-6.9c0.8-0.8,1.4-1.6,1.8-2.3c0.4-0.8,0.7-1.4,0.7-2c0-0.9-0.3-1.6-1-2.1s-1.6-0.7-2.7-0.7
		c-0.8,0-1.6,0.2-2.5,0.5c-0.8,0.4-1.6,0.9-2.3,1.5l-0.7-1.2c0.8-0.7,1.7-1.3,2.7-1.7c1-0.4,2-0.6,3-0.6c1.6,0,2.9,0.4,3.8,1.1
		c1,0.7,1.4,1.7,1.4,3c0,0.8-0.3,1.6-0.8,2.5c-0.6,0.9-1.3,1.9-2.3,2.9l-5.7,5.9H411.6z"/>
	<path d="M412.6,446.8h5.7v16.8h-1.7v-15.3h-4.1V446.8z"/>
</g>
<g id="g10">
	
		<linearGradient id="path837_1_" gradientUnits="userSpaceOnUse" x1="395.2207" y1="177.7363" x2="680.7694" y2="-107.8124" gradientTransform="matrix(1 0 0 -1 -258.35 149.26)">
		<stop  offset="0" style="stop-color:#2E847B"/>
		<stop  offset="0.52" style="stop-color:#2A9CBE;stop-opacity:0.7"/>
		<stop  offset="0.99" style="stop-color:#FCC805;stop-opacity:0.25"/>
	</linearGradient>
	<path id="path837" class="st1" d="M226.5,0h-0.9h-0.9l-5.2,9.3c-2.9,5-5.2,9.2-5.1,9.2s1.2,0.2,2.5,0.3c2,0.2,2.5,0.3,2.9,0.5
		l0.4,0.3v7.5c0,4.1-0.1,11.9-0.3,17.3s-0.3,14.9-0.4,21.2s-0.2,12.9-0.3,14.7s-0.2,4.4-0.3,5.6c0,0.9-0.1,1.7-0.2,2.6
		c-0.1,0.2-0.5,0.1-2.7-0.9c-1.5-0.7-3.4-1.5-4.4-2c-2.1-0.9-3.2-1.8-3.8-3l-0.4-0.8v-8.8c0-4.9,0-9.2,0.1-9.6c0-0.7,0-1.5-0.1-2.2
		c-0.1-0.8-0.1-1.7,0.2-2.5c0.5-1.5,1.3-2.8,2.5-3.8c1.7-1.6,2.7-3.8,2.7-6.1c0.1-3.3-1.5-6.4-4.1-8.3c-3.2-1.9-7.1-2.1-10.4-0.6
		c-2.3,1.2-4.1,3.4-4.8,6c-0.3,1.6-0.3,3.3,0,4.9c0.4,1.6,1.2,3,2.2,4.3c0.9,0.9,1.5,2,1.8,3.2c0.1,0.5,0.2,5.7,0.3,14.4
		c0.1,14.8,0.1,14.2,1.1,15.4c0.5,0.6,1.8,1.4,13.8,8.6c2.5,1.5,4.8,2.9,5,3.2c0.7,0.7,0.9,1.5,1.1,3.5c0.2,3.1-0.2,4.5-1.7,6
		c-0.5,0.5-1,0.9-1.6,1.2c-2.6,1.4-4.7,3.6-5.8,6.4c-0.7,1.8-1.1,3.8-0.9,5.8c-0.1,2.1,0.2,4.2,1.1,6.2c2.2,4.5,6.4,7.6,11.4,8.3
		c1.9,0.2,3.8,0,5.6-0.4c4.9-1.3,8.8-4.9,10.5-9.7c0.5-1.4,0.5-1.5,0.5-4.1c0.1-1.3,0-2.7-0.4-4c-0.9-3.4-3-6.4-5.9-8.3
		c-1.2-0.6-2.1-1.6-2.7-2.8c-0.2-0.6-0.2-2.4-0.1-9.5c0.1-8.5,0.2-11.6,0.6-12.8c0.2-0.9,0.9-1.6,2.3-2.3l4.2-2.3
		c1.7-0.9,4.7-2.5,6.8-3.6c4.2-2.2,4.9-2.6,5.9-3.7c1.6-1.7,2.1-3.5,2.3-8.8c0.1-2,0.2-8.3,0.3-14s0.2-10.7,0.3-11.1
		c0.1-0.9,0.5-1.3,1.8-1.7c1.6-0.6,1.5,0,1.5-8.2v-7.1h-7.8c-4.9,0-8,0.1-8.1,0.2c-0.5,0.3-0.6,1-0.6,7.2v6l0.4,0.7
		c0.3,0.5,0.7,0.9,1.2,1.2c0.4,0.3,1,0.7,1.2,0.9l0.5,0.4v13.5c0,15.2,0.1,14.6-1,15.8c-0.8,0.8-1.9,1.4-6.9,3.8
		c-3.4,1.6-4.2,1.9-4.2,1.7s0-1.8,0.1-3.7s0.2-7,0.3-11.3s0.2-10.5,0.3-13.6s0.2-10.4,0.3-16l0.1-10.3h6.4l-0.1-0.3
		c-0.6-1.6-1.2-3.2-2-4.8c-1.4-2.7-3-5.4-4.7-8c-1.2-1.8-2.4-3.8-2.7-4.4L226.5,0z M102,12.6c-2.3,0-4.6,0.6-6.6,1.8
		c-2.5,1.7-4.5,3.9-6,6.5c-0.6,1.3-1,2.7-1.2,4.1c-0.1,1.1,0,2.2,0.3,3.2c0.3,2.1,1.2,4,2.5,5.7c2.4,2.9,5.8,4.7,9.6,5.2
		c2,0.2,4.1,0.1,6.1-0.4c6.4-1.5,10.6-7.7,9.8-14.2c-0.7-4.7-3.8-8.7-8.1-10.5C106.2,13.1,104.1,12.6,102,12.6z M129.4,35.9
		c-2.3-0.2-4.6,0.5-6.4,1.9c-2.1,1.6-8.4,10.8-13.1,19.2c-1.8,3.2-3.4,6.6-4.8,10.1c-0.7,1.8-1.5,3.6-1.8,4.1
		c-0.4,0.9-1.2,1.6-2.2,1.9c-2.3,0-4.7-0.1-7-0.3c0.1-1.3,0.4-2.5,0.8-3.7c0.2-0.6,1.4-3.6,2.7-6.7c3.3-7.8,3.6-9.1,3.6-12.6
		c0.1-2.1-0.3-4.3-1.3-6.2c-2-4.1-6.1-6.5-11.1-6.5c-4.3-0.1-8.3,2-10.6,5.5c-1.9,2.7-4.8,9.9-8,19.8c-0.6,1.9-2.9,7.8-3.6,9.2
		c-0.1,0.3-0.4,0.5-0.6,0.7c-0.3,0.1-3.5,0.2-14,0.2c-10.8,0-13.7,0-14.4,0.2c-2.8,0.6-5.1,2.8-5.9,5.5c-0.3,2.2-0.3,4.5,0.2,6.6
		c0.5,1.1,1.4,1.9,2.4,2.5c1.6,0.8,3,0.9,12.3,0.8c4.9,0,9.2,0,10,0.1c1.7,0.1,3.4,0.4,5,0.8c0.4,0.3,0.7,2.2,0.7,4s-0.4,3-1.3,3.8
		s-1.7,1-6.9,1c-4.5,0-4.7,0-5.5,0.3c-2.7,1.1-4.9,3.3-5.8,6.1c-0.5,1.7-0.6,3.6-0.2,5.4c0.7,2.9,2.7,5.3,5.4,6.6
		c2.2,1,3.2,1.2,7.6,1.3s4.6,0.2,5.2,1.4c0.3,0.7,0.3,0.8,0.1,4.3c-0.3,5.4,0.1,10.8,1.1,16.1c0.2,0.9,0.7,4,1.2,6.7
		c0.7,4.4,1.6,8.7,2.7,12.9c6.1,22.4,16.6,43.4,31,61.6c5.6,7,10.6,12,20.5,20.6c7.5,6.5,10.4,8.5,22.6,16.2
		c7.2,4.5,7.9,4.8,10.4,5.3c3.2,0.4,6.5-0.2,9.4-1.8c3.1-2.1,5.3-5.2,6.1-8.9c0.7-2.6,0.4-4.5-0.9-5.9c-0.6-0.7-1.3-1.2-5.2-3.5
		c-3.3-1.9-6.4-4-9.5-6.3c-1.2-1-3.8-2.8-5.6-4.2c-6.1-4.5-11.7-9.5-16.8-15.1c-5.6-6.1-9.2-11-20.5-28c-6.3-9.5-7.6-11.7-10.2-17.4
		c-0.6-1.4-1.7-3.8-2.4-5.4c-2.7-6-4.9-12.2-6.5-18.6c-1.9-7.5-2.6-13.9-2.8-25c-0.1-4.1-0.1-4.5,0.2-5.1c0.2-0.3,0.4-0.6,0.7-0.9
		c1.2-0.5,2.5-0.7,3.8-0.6c1.9,0,3.8,0.3,5.6,0.6c1,0.3,1,0.4,1.1,9.3c0.1,4.5,0.2,8.3,0.3,8.7s0.5,2.5,1,4.7
		c3.5,16,5.2,20.6,13.6,36.6c3.4,6.8,7.5,13.2,12.1,19.2c4.8,6.4,10.1,12.4,15.9,18c4.9,4.5,10.1,8.6,15.7,12.3
		c3.4,2.1,12.5,7,16.6,8.9c11.9,5.5,28,9,44.6,9.9c6.2,0.3,12.4,0.2,18.6-0.5c2-0.3,11.1-2.2,16.3-3.5c12.6-3,24.6-8.2,35.4-15.3
		c4.6-3.1,9-6.4,13.3-10c0.8-0.8,3.7-3.5,6.3-6.1c4.2-4.2,4.8-4.9,5.3-5.8c1.5-2.9,1.4-5.7-0.4-9.2c-1.4-2.8-2.9-4.3-5.3-5.2
		c-1.3-0.6-2.8-0.8-4.2-0.8c-3.7,0-6,1.3-11.3,6.4c-5.7,5.5-8.8,7.7-18.8,14c-7.2,4.4-11.1,6.3-17.9,8.4c-8.8,2.7-12.7,3.6-19.6,4.4
		c-12.5,1.5-15,1.6-24.3,0.9c-4.3-0.3-7.9-1-15.7-3c-4.9-1.1-9.6-2.7-14.1-4.8c-1.3-0.6-3.9-1.7-5.8-2.5c-10.9-4.7-15-7.1-20.9-12
		c-5.2-4.7-10.1-9.8-14.5-15.3c-1.6-2.1-9.7-14.7-11.5-18c-6.3-10.9-10.3-23.1-11.7-35.6c-0.4-4-0.9-12.8-0.8-13.3
		c0.3-1.2,1-1.4,5.3-1.6c2.8-0.1,4.4,0.1,4.9,0.5c0.8,0.7,0.8,0.9,0.9,6.2c-0.1,5.6,0.6,11.2,2,16.6c1.2,5,3,9.9,5.1,14.5
		c0.9,1.9,4.5,8.7,7.3,13.9c1.8,3.2,3.8,6.3,6.1,9.2c4.2,5.2,8.8,10,13.8,14.4c12.9,11.2,27.7,17.2,45.9,18.9
		c5.7,0.3,11.5,0.3,17.2-0.1c7.5-0.7,13.1-1.5,14.3-2c4-2,3.8-8.9-0.4-13.5c-1.7-1.8-3-2.5-6.2-3.1c-1.6-0.3-3.3-0.4-4.9-0.1
		c-1.8,0.2-3.6,0.2-5.4,0c-7.6-0.4-11.3-0.7-13.4-1c-8.5-1.5-16.7-4.5-24.1-9c-2.4-1.4-7-4.6-9.6-6.7c-2.9-2.3-7-6.6-11.8-12.7
		s-6.7-9.2-9-15.3c-2.5-5.8-4.1-12-4.8-18.2c-1-6.9-1.1-8.4-1.1-12.5c0-3.8,0.3-7.6,1.1-11.3c1.3-7.6,3.6-15,6.9-21.9
		c2-4,3.8-6.5,9.4-13.6c4.4-5.5,4.6-5.8,5.6-7.8c2.4-4.9,2.2-8.2-0.9-12c-1-1.4-2.5-2.4-4.1-2.9c-1.1-0.4-2.3-0.6-3.5-0.5
		c-3.5-0.1-4.8,0.4-7.7,2.6c-3.9,3.2-7.3,7-10.1,11.2c-4.8,7.1-7.7,13.9-11.1,26.3c-0.7,2.5-1.5,5.5-1.8,6.5
		c-0.7,2.6-1.6,5.1-2.6,7.5c-0.2,0.3-0.6,0.3-4.4,0.2c-2.3,0-4.4-0.2-4.6-0.2c-0.3-0.1-0.5-0.3-0.6-0.5c0-2.3,0.1-4.6,0.4-6.9
		c0.1-0.7,0.5-2.6,0.9-4.3c1.8-7.3,4.4-14.4,7.7-21.1c2.1-4.1,4.4-8.1,7-11.9c4.4-6.8,4.8-7.5,5.1-9.5c0.5-3-1-5.9-4.5-8.3
		c-1.8-1.2-2.5-1.5-5.1-1.5L129.4,35.9z M365.1,43.5h-1.9c-5.5,0-6.1,0.1-6.4,0.8c-0.1,0.3-0.2,6.3-0.2,22.7c0,12.3,0,22.3-0.1,22.3
		s-0.8-0.7-1.8-2.1c-1.9-2.5-4.3-4.5-7-6c-2.5-1.2-5.2-2-8-2.4c-1.3-0.2-3.2-0.3-9.7-0.3l-8.1-0.1l-2.1,0.4
		c-2.6,0.5-5.2,1.2-7.7,2.2c-1.8,0.7-3.6,1.6-5.2,2.7c-5.4,3.6-8.3,9.1-9.7,18c-0.3,2-0.5,10.4-0.5,21.4c0,14.5,0.7,21.8,2.6,27.6
		c1.2,4.2,3.8,7.8,7.3,10.4c2,1.4,4.2,2.5,6.5,3.3c4.5,1.4,9.3,2.1,14,2.3c0.6,0,3,0,5.3,0c3.1,0.1,6.1-0.2,9.1-0.9
		c4.1-0.9,8-2.8,11.3-5.5c1.3-1.4,2.5-2.9,3.5-4.5c0.3-0.6,0.8-1.1,1.3-1.5c0.1,0,0.2,1.6,0.2,5.4v5.4h12.1V105
		c0-52.3,0-60.2-0.2-60.6C369.2,43.7,368.9,43.5,365.1,43.5L365.1,43.5z M418.5,75.9c-1.8,0-3.7,0-5.6,0.1
		c-4.9,0.1-9.8,0.7-14.7,1.7c-8.3,1.8-11.1,3.2-13.6,7c-2.1,3.1-3.1,6.8-3,10.5c0.1,1.9,0.3,2.5,1,3c0.4,0.3,0.8,0.3,5.3,0.3
		c4.9,0,4.9,0,5.4-0.3s1.3-1.6,2.1-4.1c1-2.9,2-4.3,3.7-5.1c0.9-0.5,4.4-1.1,9.3-1.7c4.9-0.5,9.9-0.5,14.8-0.1
		c2.8,0.4,7.4,1.1,8.5,1.4c2.2,0.5,4.1,2,5.2,4c0.8,1.7,1.7,6.8,2,12.4c0.2,2.6,0.1,12-0.1,12.2c-0.4-0.2-0.7-0.4-1-0.6
		c-1.6-1.2-3.3-2.3-5-3.3c-2.7-1.4-7.2-2.4-12.6-2.9c-3-0.3-11.4-0.4-14.7-0.2c-7.4,0.5-14.7,1.5-17.1,2.5c-2.4,1.1-4.5,2.8-6.1,5
		c-3.2,4.9-4.7,13.7-3.8,23.1c0.8,8.7,1.6,12,3.4,14.8c2.3,3.4,4.8,5.1,10.7,6.9c4.8,1.4,9.9,2.2,14.9,2.4c3.9,0.1,7.7,0.1,11.6-0.2
		c3.9-0.3,7.7-1.1,11.5-2.4c3.6-1.3,5.8-2.8,7.5-5.2c0.4-0.5,0.7-1,0.8-1.1s0.2-0.1,0.3,0s0.3,0.7,0.3,2.2c0.2,3.5,0.3,4.2,0.9,4.7
		l0.5,0.4h5.3h5.3l0.2-0.9c0.3-1.5,0.5-13.8,0.4-29.7c-0.1-13.6-0.2-19.4-0.6-31.5c-0.3-8.5-0.8-12.1-1.9-14.6
		c-1.6-3.5-4.6-6.2-8.2-7.4c-2.4-0.8-4.9-1.5-7.4-2C428.9,76.4,423.7,75.9,418.5,75.9L418.5,75.9z M458.8,75.9c-1-0.1-2.1,0-3.1,0.2
		c0.1,0.7,0.2,1.3,0.5,2c0.5,1.9,1.9,5.8,13.6,39.4c3.2,9.1,7.8,22.4,10.2,29.5s4.5,13,4.5,13.2c0.9,1.4,2.2,2.3,3.8,2.6
		c0.4,0.1,0.7,0.2,0.7,0.2s-3,7.8-3.8,9.7c-0.9,2-1.8,4-2.9,6c-1.1,2.1-3,3.7-5.3,4.4c-2.5,0.6-5,0.9-7.5,0.9h-2.2v11.4h5
		c7.8,0,9.6-0.2,12.3-1.5c2.9-1.6,5.3-3.9,7-6.7c3.9-5.7,5.6-10.1,18.6-47.7c2-5.7,4.8-13.8,6.3-18s3.6-10.2,4.6-13.2
		c6.1-17.8,9.8-28.6,10.1-30c0.2-0.9,0.5-1.8,0.5-1.9c0-0.1-0.3-0.3-5.7-0.3c-4.7,0-5.8,0-6.2,0.2c-0.7,0.4-1.9,3-3.9,8.9
		c-4.3,12.3-11.4,33.1-17.7,51.6c-3.2,9.3-4.2,12.2-4.6,12.2c-0.1,0-2.5-7-5.4-15.5c-5.5-16.2-14.1-41.1-17.4-50.4
		c-1-3-2-5.6-2.1-5.8c-0.2-0.3-0.5-0.6-0.8-0.7c-0.5-0.3-1-0.3-5.1-0.5C461.2,76,459.8,75.9,458.8,75.9L458.8,75.9z M183.5,79.1
		c-1.5,0-3,0.5-4.2,1.3c-3.4,2-7.9,9.2-10.9,17.3c-2.3,5.7-3.4,11.7-3.4,17.8c0,4.8,0.6,9.5,1.8,14.1c1.5,5.7,3.7,11.2,6.6,16.3
		c2.3,3.6,5,6.8,8.1,9.7c2.2,2,6.5,5.6,7.8,6.6c5.2,3.7,11,6.4,17.1,8c4.1,1,8.3,1.7,12.5,2c3.6,0.2,7.1,0,10.6-0.5
		c3.5-0.2,7-0.8,10.4-1.6c7.7-2.1,14.9-5.8,20.9-11c3.1-2.7,6-5.7,8.8-8.8c3.8-5,6.7-10.6,8.7-16.5c2.1-5.9,2.9-12.3,2.5-18.6
		c-0.5-11.7-2-17.5-6.4-25c-2.8-4.7-4.2-6.6-6-7.8c-3.6-2.5-7.9-2.2-10.6,0.6c-1.5,1.6-2.4,3.7-2.4,5.9c0,2.1,0.5,3.4,2.5,6.9
		c3.1,4.8,5.2,10.3,6.1,16c0.4,3.1,0.4,6.2,0,9.3c-2.6,16.1-14.4,29.3-30.2,33.6c-3.4,1-7,1.4-10.6,1.2c-2.1,0.1-4.1,0-6.2-0.3
		c-5.4-0.8-10.6-2.6-15.3-5.4c-2.9-1.9-5.6-3.9-8.2-6.2c-4.8-4.5-8.9-11.9-10.5-19.2c-1.3-6.2-1.1-12.6,0.6-18.7
		c1.2-4,2.9-7.8,5.3-11.2c1-1.6,2-3.4,2.3-4c1.6-3.2,1-6.3-1.8-9.1C187.8,80.1,185.7,79.2,183.5,79.1L183.5,79.1z M332,90
		c2,0,3.9,0.1,5.9,0.4c2.8,0.5,5.5,1.3,8.1,2.4c1.7,0.9,3.3,2,4.8,3.3c3,2.9,4.9,6.7,5.5,10.8c0.4,2.1,0.7,11.3,0.8,18.8
		c0,6.9-0.1,8.1-0.8,11.9c-0.7,3.2-1.9,6.3-3.6,9.1c-1.1,1.5-2.5,2.7-4,3.8c-3.9,2.3-8.2,3.7-12.7,4.2c-6.1,0.7-12.3,0-18-2.2
		c-3-1.2-4.1-2.3-5-5.2c-1.4-4.4-1.7-6.5-2.1-17.3c-0.3-8.4-0.1-21.3,0.5-25.9c0.3-2.8,1-5.6,2.1-8.2c0.7-1.4,1.9-2.6,3.4-3.3
		c2-0.9,7.5-2.1,11.7-2.5C329.4,90,330.6,90,332,90z M89.9,91.4c0.7,0,1.7,0,2.9,0.1c3.6,0.2,3.8,0.3,4.2,1.1c0.3,1,0.4,2.1,0.2,3.2
		c-0.3,0.5-1.2,0.9-2.9,1.4c-1.4,0.4-2.9,0.4-4.3,0.3c-0.9-0.2-1.8-0.5-2.6-1c-0.9-0.7-1.1-2-0.5-3.6C87.2,91.8,87.6,91.4,89.9,91.4
		L89.9,91.4z M414.1,120.9c1.6,0,3.2,0.2,4.8,0.5c1.6,0.3,4.1,0.7,5.6,0.9c7.5,1.1,9.8,1.8,11.6,3.8s2.6,5,2.8,11.2
		c0.1,4.1-0.4,7-1.7,8.9c-0.9,1.3-2.1,2.4-3.5,3.1c-3.2,1.7-9.1,2.9-15.8,3.2l-4.6,0.2c-3.6,0-7.3-0.3-10.8-1.1
		c-3.5-0.7-4.9-1.4-6.8-3.3c-2.7-2.7-3.5-5.3-3.5-11.6c0-6,0.9-9.6,3-11.6c1.9-1.7,3.6-2.4,8.7-3.1c1.6-0.2,4-0.6,5.5-0.8
		C410.9,121,412.5,120.9,414.1,120.9L414.1,120.9z M337.3,183.8c-3.4-0.1-6.8,0.7-9.8,2.2c-2.7,1.4-4.9,3.4-6.4,6l8.2,4.6
		c0.7-1.2,1.8-2.1,3-2.8c1.2-0.7,2.6-1,4-1c1.3-0.1,2.7,0.3,3.8,1.1c0.9,0.7,1.4,1.9,1.3,3c0,1-0.3,2-0.7,2.9
		c-0.8,1.3-1.7,2.4-2.8,3.4l-14.7,13.7v6.9h30.5V215h-15.1l7.4-6.8c2.1-1.8,3.9-3.9,5.3-6.4c0.9-1.9,1.4-3.9,1.4-6
		c0-2.2-0.7-4.4-2-6.3c-1.3-1.9-3.2-3.3-5.4-4.2C342.7,184.3,340,183.8,337.3,183.8L337.3,183.8z M377.2,183.8
		c-3.1-0.1-6.3,0.8-9,2.4c-2.7,1.7-4.8,4.2-6.2,7c-1.5,3.4-2.3,7.1-2.2,10.9c-0.1,3.8,0.6,7.5,2.2,11c1.3,2.9,3.5,5.3,6.2,7
		c5.5,3.2,12.3,3.2,17.8,0c2.7-1.7,4.8-4.1,6.1-7c1.6-3.5,2.3-7.2,2.2-11c0.1-3.8-0.7-7.5-2.2-10.9c-1.3-2.9-3.4-5.4-6.1-7
		C383.4,184.6,380.3,183.7,377.2,183.8L377.2,183.8z M414.8,183.8c-3.4-0.1-6.8,0.7-9.8,2.2c-2.7,1.4-4.9,3.4-6.4,6l8.2,4.6
		c0.7-1.2,1.8-2.1,3-2.8c1.2-0.7,2.6-1,4-1c1.3-0.1,2.7,0.3,3.8,1.1c0.9,0.7,1.4,1.9,1.3,3c0,1-0.3,2-0.7,2.9
		c-0.8,1.3-1.7,2.4-2.8,3.4l-14.7,13.6v6.9h30.5v-8.8H416l7.4-6.8c2.1-1.8,3.9-3.9,5.3-6.4c0.9-1.9,1.4-3.9,1.4-6
		c0-2.2-0.7-4.4-2-6.3c-1.3-1.9-3.2-3.3-5.4-4.2C420.2,184.2,417.5,183.7,414.8,183.8L414.8,183.8z M435.8,184.6v8.6h7.3v30.6h11.1
		v-39.2H435.8z M377.1,192.8c1.9,0,3.6,1.1,4.4,2.7c1.1,1.8,1.7,4.6,1.7,8.5s-0.5,6.8-1.7,8.6c-0.9,1.6-2.6,2.7-4.4,2.7
		c-1.9,0-3.6-1-4.5-2.7c-1.1-1.8-1.6-4.7-1.6-8.6s0.5-6.8,1.6-8.5C373.5,193.9,375.3,192.8,377.1,192.8L377.1,192.8z"/>
</g>
</svg>
